<svg xmlns="http://www.w3.org/2000/svg" viewBox="0 0 495 148"><g transform="translate(24,124.0)"><path d="M27.727272727272727 0.9090909090909091Q16.875 0.9090909090909091 10.255681818181818 -5.8522727272727275Q3.6363636363636362 -12.613636363636363 3.6363636363636362 -24.772727272727273V-70.9090909090909Q3.6363636363636362 -85.45454545454545 9.40340909090909 -93.18181818181819Q15.170454545454545 -100.9090909090909 28.18181818181818 -100.9090909090909Q35.28409090909091 -100.9090909090909 40.82386363636363 -98.29545454545453Q46.36363636363636 -95.68181818181817 49.54545454545455 -90.48295454545453Q52.72727272727273 -85.2840909090909 52.72727272727273 -77.38636363636364V-60.11363636363636H32.840909090909086V-74.88636363636364Q32.840909090909086 -79.375 31.704545454545453 -80.9375Q30.568181818181817 -82.5 28.18181818181818 -82.5Q25.397727272727273 -82.5 24.43181818181818 -80.48295454545455Q23.46590909090909 -78.4659090909091 23.46590909090909 -75.11363636363636V-25.05681818181818Q23.46590909090909 -20.90909090909091 24.6875 -19.204545454545453Q25.909090909090907 -17.5 28.18181818181818 -17.5Q30.738636363636363 -17.5 31.789772727272727 -19.602272727272727Q32.840909090909086 -21.704545454545453 32.840909090909086 -25.05681818181818V-43.06818181818182H52.95454545454545V-24.147727272727273Q52.95454545454545 -10.96590909090909 46.30681818181818 -5.028409090909091Q39.65909090909091 0.9090909090909091 27.727272727272727 0.9090909090909091Z M143.60227272727275 0.0V-100.0H171.10227272727275Q181.89772727272728 -100.0 187.35227272727275 -94.00568181818181Q192.8068181818182 -88.01136363636364 192.8068181818182 -76.47727272727272V-29.659090909090907Q192.8068181818182 -15.454545454545453 187.83522727272728 -7.727272727272727Q182.86363636363637 0.0 170.42045454545456 0.0ZM163.7159090909091 -17.670454545454543H167.1818181818182Q172.69318181818184 -17.670454545454543 172.69318181818184 -23.011363636363637V-74.60227272727272Q172.69318181818184 -79.60227272727272 171.35795454545456 -81.05113636363636Q170.02272727272728 -82.5 165.9318181818182 -82.5H163.7159090909091Z M204.07954545454547 0.0V-100.0H223.39772727272728V0.0Z M235.35227272727275 0.0V-100.0H266.03409090909093Q273.7045454545455 -100.0 277.625 -96.50568181818181Q281.54545454545456 -93.01136363636364 282.88068181818187 -86.73295454545455Q284.2159090909091 -80.45454545454545 284.2159090909091 -71.98863636363636Q284.2159090909091 -63.80681818181818 282.1420454545455 -58.92045454545455Q280.0681818181818 -54.03409090909091 274.3295454545455 -52.15909090909091Q279.04545454545456 -51.19318181818181 280.9488636363636 -47.47159090909091Q282.85227272727275 -43.75 282.85227272727275 -37.840909090909086V0.0H263.1363636363636V-39.14772727272727Q263.1363636363636 -43.52272727272727 261.3465909090909 -44.57386363636364Q259.5568181818182 -45.625 255.57954545454547 -45.625V0.0ZM255.69318181818184 -62.95454545454545H260.5227272727273Q264.67045454545456 -62.95454545454545 264.67045454545456 -71.98863636363636Q264.67045454545456 -77.8409090909091 263.7613636363636 -79.6590909090909Q262.85227272727275 -81.47727272727272 260.35227272727275 -81.47727272727272H255.69318181818184Z M294.8068181818182 0.0V-100.0H334.8068181818182V-80.68181818181817H315.14772727272725V-61.19318181818181H334.0113636363636V-42.38636363636363H315.14772727272725V-19.488636363636363H336.1136363636364V0.0Z M370.0 0.9090909090909091Q359.14772727272725 0.9090909090909091 352.52840909090907 -5.8522727272727275Q345.9090909090909 -12.613636363636363 345.9090909090909 -24.772727272727273V-70.9090909090909Q345.9090909090909 -85.45454545454545 351.6761363636364 -93.18181818181819Q357.4431818181818 -100.9090909090909 370.45454545454544 -100.9090909090909Q377.55681818181813 -100.9090909090909 383.0965909090909 -98.29545454545453Q388.6363636363636 -95.68181818181817 391.8181818181818 -90.48295454545453Q395.0 -85.2840909090909 395.0 -77.38636363636364V-60.11363636363636H375.1136363636363V-74.88636363636364Q375.1136363636363 -79.375 373.9772727272727 -80.9375Q372.84090909090907 -82.5 370.45454545454544 -82.5Q367.6704545454545 -82.5 366.7045454545454 -80.48295454545455Q365.7386363636363 -78.4659090909091 365.7386363636363 -75.11363636363636V-25.05681818181818Q365.7386363636363 -20.90909090909091 366.96022727272725 -19.204545454545453Q368.18181818181813 -17.5 370.45454545454544 -17.5Q373.0113636363636 -17.5 374.0625 -19.602272727272727Q375.1136363636363 -21.704545454545453 375.1136363636363 -25.05681818181818V-43.06818181818182H395.2272727272727V-24.147727272727273Q395.2272727272727 -10.96590909090909 388.5795454545454 -5.028409090909091Q381.93181818181813 0.9090909090909091 370.0 0.9090909090909091Z M414.45454545454544 0.0V-80.79545454545455H402.57954545454544V-100.0H446.32954545454544V-80.79545454545455H434.45454545454544V0.0Z" fill="#FAFAF7"/><path d="M51.7 -94.0 h95.0 v4.2 h-95.0 Z M97.5 -89.8 h3.4 v68.8 h-3.4 Z M68.2 -21.0 h62.0 v14.0 h-62.0 Z M58.6 -89.8 h1.4 v32.0 h-1.4 Z M43.3 -50.8 L43.3 -44.8 Q43.3 -37.8 50.3 -37.8 L68.3 -37.8 Q75.3 -37.8 75.3 -44.8 L75.3 -50.8 Q75.3 -57.8 68.3 -57.8 L50.3 -57.8 Q43.3 -57.8 43.3 -50.8 Z M138.4 -89.8 h1.4 v32.0 h-1.4 Z M123.1 -50.8 L123.1 -44.8 Q123.1 -37.8 130.1 -37.8 L148.1 -37.8 Q155.1 -37.8 155.1 -44.8 L155.1 -50.8 Q155.1 -57.8 148.1 -57.8 L130.1 -57.8 Q123.1 -57.8 123.1 -50.8 Z" fill="#C98A2B"/></g></svg>